<?xml version="1.0" standalone="no"?>
<!DOCTYPE svg PUBLIC "-//W3C//DTD SVG 20010904//EN"
 "http://www.w3.org/TR/2001/REC-SVG-20010904/DTD/svg10.dtd">
<svg version="1.0" xmlns="http://www.w3.org/2000/svg"
 width="512.000000pt" height="512.000000pt" viewBox="0 0 512.000000 512.000000"
 preserveAspectRatio="xMidYMid meet">
<metadata>
Created by potrace 1.14, written by Peter Selinger 2001-2017
</metadata>
<g transform="translate(0.000000,512.000000) scale(0.100000,-0.100000)"
fill="#000000" stroke="none">
<path d="M2110 4693 c-306 -53 -589 -162 -849 -328 -228 -146 -589 -446 -621
-516 -27 -60 49 -122 105 -85 13 9 59 48 102 88 331 308 674 522 1003 626 175
56 249 67 435 67 151 0 178 -3 240 -23 91 -30 147 -64 213 -126 50 -47 110
-131 100 -141 -2 -2 -24 2 -49 9 -71 22 -120 -6 -119 -67 1 -38 26 -58 122
-94 121 -45 254 -114 306 -158 83 -71 103 -164 55 -255 -60 -112 -192 -159
-266 -93 -11 10 -44 51 -74 91 -156 211 -355 366 -571 448 l-83 31 38 6 c21 4
82 7 135 7 53 0 108 5 122 11 52 24 55 103 4 130 -38 20 -311 4 -442 -26 -312
-72 -628 -232 -916 -463 -129 -104 -292 -256 -365 -341 -58 -68 -62 -71 -154
-101 -52 -17 -126 -44 -164 -61 -39 -16 -71 -28 -73 -27 -1 2 47 62 107 133
60 72 112 141 115 154 16 56 -31 102 -88 88 -61 -16 -478 -559 -478 -624 0
-31 42 -73 73 -73 13 0 61 24 108 54 204 129 443 227 638 261 137 24 302 22
372 -4 163 -61 148 -218 -23 -252 -50 -10 -73 -8 -212 20 -245 49 -374 40
-520 -37 -130 -68 -224 -190 -267 -347 -18 -68 -21 -96 -16 -185 3 -58 13
-127 21 -154 22 -69 81 -174 121 -216 l34 -35 -30 -66 c-53 -121 -64 -180 -63
-334 1 -122 5 -152 28 -230 53 -175 156 -356 277 -488 51 -57 66 -67 94 -67
38 0 73 26 76 55 3 42 -2 56 -43 103 -24 26 -54 63 -68 81 -14 19 -35 45 -48
60 -34 40 -117 207 -141 286 -30 97 -38 248 -17 344 48 226 211 404 436 475
296 94 689 31 845 -135 39 -42 45 -54 45 -93 0 -36 -5 -48 -26 -65 -35 -28
-89 -28 -112 0 -35 42 -105 89 -133 89 -40 0 -69 -32 -69 -75 0 -28 8 -40 44
-71 80 -67 101 -161 55 -245 -59 -106 -160 -118 -244 -29 -59 62 -195 149
-270 172 -109 33 -225 26 -308 -20 -99 -53 -163 -189 -124 -264 9 -18 22 -24
52 -26 34 -3 45 1 67 26 15 17 24 32 21 35 -2 3 3 21 12 41 18 37 59 71 75 61
6 -3 10 -1 10 4 0 17 91 13 149 -5 28 -10 48 -21 44 -27 -3 -6 -1 -7 5 -3 15
9 80 -36 157 -109 33 -31 72 -61 87 -67 16 -5 26 -13 24 -17 -5 -8 55 -14 129
-14 33 0 67 8 100 24 75 37 78 39 114 86 19 24 37 42 41 41 4 -2 38 -31 76
-66 415 -376 1054 -676 1831 -858 153 -35 163 -37 186 -21 36 23 45 72 20 106
-16 21 -40 31 -129 53 -524 132 -814 233 -1154 404 -207 104 -349 190 -490
297 -111 84 -300 266 -300 289 0 10 15 19 43 26 107 27 172 116 171 233 0 58
-5 74 -35 124 -47 79 -116 138 -223 190 -143 71 -258 97 -456 102 -129 4 -182
1 -244 -11 -103 -22 -188 -50 -257 -86 -31 -16 -60 -26 -64 -22 -5 4 -4 1 0
-7 6 -11 4 -13 -11 -7 -10 4 -15 4 -11 0 4 -4 -5 -15 -21 -24 -15 -9 -52 -40
-84 -69 l-56 -51 -31 41 c-17 23 -28 46 -25 51 3 4 1 8 -4 8 -17 0 -52 137
-52 200 1 78 44 225 63 213 6 -3 7 -1 3 5 -4 6 2 20 14 32 11 11 17 20 13 20
-3 0 2 9 12 20 10 11 23 17 29 13 6 -3 8 -3 4 2 -4 4 -3 14 3 22 9 10 15 11
26 2 11 -9 12 -9 7 4 -6 16 34 39 121 68 66 22 205 16 336 -14 207 -48 339
-29 441 65 132 121 111 316 -45 422 -71 47 -141 66 -278 73 l-115 6 35 36
c219 224 578 467 761 517 94 25 271 23 372 -4 138 -37 315 -138 433 -245 l60
-55 -45 -11 c-263 -67 -431 -227 -502 -478 -39 -141 -28 -306 33 -471 181
-493 895 -1040 1839 -1407 305 -119 691 -229 965 -275 159 -26 186 -26 214 4
19 20 22 32 17 60 -4 20 -15 40 -27 46 -10 6 -83 22 -160 36 -502 88 -1015
265 -1504 518 -580 301 -981 638 -1158 974 -136 259 -116 535 52 703 67 67
148 110 264 140 88 23 123 24 135 3 20 -36 96 -104 140 -124 67 -32 172 -31
244 2 79 37 152 108 190 186 29 59 33 76 33 152 0 71 -4 94 -27 142 -35 75
-93 137 -187 197 -74 47 -77 51 -95 109 -40 133 -160 289 -280 361 -138 83
-258 112 -459 110 -78 -1 -153 -4 -167 -6z"/>
<path d="M1936 3767 c-112 -114 -171 -206 -219 -341 -32 -91 -57 -238 -57
-338 0 -56 4 -71 23 -94 30 -35 79 -37 110 -5 19 19 23 36 28 144 7 141 27
224 76 322 46 92 101 164 191 252 68 65 74 74 68 100 -12 45 -34 63 -80 63
-38 0 -46 -6 -140 -103z"/>
<path d="M1743 2804 c-21 -21 -24 -32 -20 -60 10 -60 54 -143 81 -154 37 -14
82 5 96 41 11 26 9 39 -15 104 -15 42 -35 80 -45 85 -32 17 -70 11 -97 -16z"/>
<path d="M864 1520 c-11 -4 -26 -21 -32 -37 -11 -28 -12 -84 -1 -77 3 2 11 -7
17 -20 42 -92 311 -378 400 -425 51 -27 112 13 112 73 0 23 -11 39 -52 75 -93
80 -208 202 -201 213 3 6 1 8 -5 4 -6 -4 -35 28 -69 76 -93 131 -109 142 -169
118z"/>
<path d="M1506 909 c-20 -16 -26 -29 -26 -57 0 -20 6 -44 13 -52 18 -23 175
-100 203 -100 61 0 96 88 53 131 -24 24 -175 99 -200 99 -9 0 -28 -9 -43 -21z"/>
<path d="M3965 728 c-34 -30 -37 -84 -7 -109 12 -9 55 -23 94 -30 139 -24 171
-16 184 47 4 24 0 37 -18 58 -19 21 -39 29 -108 41 -110 19 -114 19 -145 -7z"/>
</g>
</svg>
